<mxfile host="app.diagrams.net" modified="2023-12-29T11:25:58.933Z" agent="Mozilla/5.0 (Windows NT 10.0; Win64; x64) AppleWebKit/537.36 (KHTML, like Gecko) Chrome/120.0.0.0 Safari/537.36" etag="23U5JKHoHOni9jgKNpvy" version="22.1.15" type="device">
  <diagram name="Halaman-1" id="bqdjVcwXPAKoQn7aQbCB">
    <mxGraphModel dx="1687" dy="869" grid="1" gridSize="10" guides="1" tooltips="1" connect="1" arrows="1" fold="1" page="1" pageScale="1" pageWidth="827" pageHeight="1169" math="0" shadow="0">
      <root>
        <mxCell id="0" />
        <mxCell id="1" parent="0" />
        <mxCell id="kPRLFECJpAxbs8ugJRar-11" value="" style="edgeStyle=orthogonalEdgeStyle;rounded=0;orthogonalLoop=1;jettySize=auto;html=1;" edge="1" parent="1" source="kPRLFECJpAxbs8ugJRar-1" target="kPRLFECJpAxbs8ugJRar-3">
          <mxGeometry relative="1" as="geometry" />
        </mxCell>
        <mxCell id="kPRLFECJpAxbs8ugJRar-1" value="Mulai" style="rounded=1;whiteSpace=wrap;html=1;arcSize=50;" vertex="1" parent="1">
          <mxGeometry x="194" y="34" width="120" height="60" as="geometry" />
        </mxCell>
        <mxCell id="kPRLFECJpAxbs8ugJRar-14" style="edgeStyle=orthogonalEdgeStyle;rounded=0;orthogonalLoop=1;jettySize=auto;html=1;entryX=0.5;entryY=0;entryDx=0;entryDy=0;" edge="1" parent="1" source="kPRLFECJpAxbs8ugJRar-3" target="kPRLFECJpAxbs8ugJRar-4">
          <mxGeometry relative="1" as="geometry" />
        </mxCell>
        <mxCell id="kPRLFECJpAxbs8ugJRar-3" value="Dataset Plat&lt;br&gt;Nomor Kendaraan" style="shape=parallelogram;perimeter=parallelogramPerimeter;whiteSpace=wrap;html=1;fixedSize=1;" vertex="1" parent="1">
          <mxGeometry x="186" y="134" width="136" height="60" as="geometry" />
        </mxCell>
        <mxCell id="kPRLFECJpAxbs8ugJRar-53" value="" style="edgeStyle=orthogonalEdgeStyle;rounded=0;orthogonalLoop=1;jettySize=auto;html=1;" edge="1" parent="1" source="kPRLFECJpAxbs8ugJRar-4" target="kPRLFECJpAxbs8ugJRar-50">
          <mxGeometry relative="1" as="geometry" />
        </mxCell>
        <mxCell id="kPRLFECJpAxbs8ugJRar-4" value="" style="whiteSpace=wrap;html=1;aspect=fixed;fillColor=#f5f5f5;fontColor=#333333;strokeColor=#666666;" vertex="1" parent="1">
          <mxGeometry x="129" y="224" width="250" height="250" as="geometry" />
        </mxCell>
        <mxCell id="kPRLFECJpAxbs8ugJRar-6" value="K1" style="rounded=0;whiteSpace=wrap;html=1;" vertex="1" parent="1">
          <mxGeometry x="148" y="244" width="90" height="70" as="geometry" />
        </mxCell>
        <mxCell id="kPRLFECJpAxbs8ugJRar-8" value="K2" style="rounded=0;whiteSpace=wrap;html=1;" vertex="1" parent="1">
          <mxGeometry x="268" y="244" width="90" height="70" as="geometry" />
        </mxCell>
        <mxCell id="kPRLFECJpAxbs8ugJRar-9" value="K3" style="rounded=0;whiteSpace=wrap;html=1;" vertex="1" parent="1">
          <mxGeometry x="148" y="384" width="90" height="70" as="geometry" />
        </mxCell>
        <mxCell id="kPRLFECJpAxbs8ugJRar-10" value="K4" style="rounded=0;whiteSpace=wrap;html=1;" vertex="1" parent="1">
          <mxGeometry x="268" y="384" width="90" height="70" as="geometry" />
        </mxCell>
        <mxCell id="kPRLFECJpAxbs8ugJRar-22" style="edgeStyle=orthogonalEdgeStyle;rounded=0;orthogonalLoop=1;jettySize=auto;html=1;entryX=0.5;entryY=0;entryDx=0;entryDy=0;" edge="1" parent="1" source="kPRLFECJpAxbs8ugJRar-15" target="kPRLFECJpAxbs8ugJRar-21">
          <mxGeometry relative="1" as="geometry" />
        </mxCell>
        <mxCell id="kPRLFECJpAxbs8ugJRar-15" value="Data Train" style="strokeWidth=2;html=1;shape=mxgraph.flowchart.document2;whiteSpace=wrap;size=0.25;" vertex="1" parent="1">
          <mxGeometry x="20" y="720" width="100" height="60" as="geometry" />
        </mxCell>
        <mxCell id="kPRLFECJpAxbs8ugJRar-23" style="edgeStyle=orthogonalEdgeStyle;rounded=0;orthogonalLoop=1;jettySize=auto;html=1;entryX=0.5;entryY=0;entryDx=0;entryDy=0;" edge="1" parent="1" source="kPRLFECJpAxbs8ugJRar-16" target="kPRLFECJpAxbs8ugJRar-21">
          <mxGeometry relative="1" as="geometry" />
        </mxCell>
        <mxCell id="kPRLFECJpAxbs8ugJRar-16" value="Data Valid" style="strokeWidth=2;html=1;shape=mxgraph.flowchart.document2;whiteSpace=wrap;size=0.25;" vertex="1" parent="1">
          <mxGeometry x="204" y="720" width="100" height="60" as="geometry" />
        </mxCell>
        <mxCell id="kPRLFECJpAxbs8ugJRar-36" value="" style="edgeStyle=orthogonalEdgeStyle;rounded=0;orthogonalLoop=1;jettySize=auto;html=1;" edge="1" parent="1" source="kPRLFECJpAxbs8ugJRar-17" target="kPRLFECJpAxbs8ugJRar-34">
          <mxGeometry relative="1" as="geometry" />
        </mxCell>
        <mxCell id="kPRLFECJpAxbs8ugJRar-17" value="Data Test" style="strokeWidth=2;html=1;shape=mxgraph.flowchart.document2;whiteSpace=wrap;size=0.25;" vertex="1" parent="1">
          <mxGeometry x="390" y="720" width="100" height="60" as="geometry" />
        </mxCell>
        <mxCell id="kPRLFECJpAxbs8ugJRar-32" value="" style="edgeStyle=orthogonalEdgeStyle;rounded=0;orthogonalLoop=1;jettySize=auto;html=1;" edge="1" parent="1" source="kPRLFECJpAxbs8ugJRar-21" target="kPRLFECJpAxbs8ugJRar-31">
          <mxGeometry relative="1" as="geometry" />
        </mxCell>
        <mxCell id="kPRLFECJpAxbs8ugJRar-21" value="Training Dataset&lt;br&gt;Menggunakan Yolo v5" style="rounded=0;whiteSpace=wrap;html=1;" vertex="1" parent="1">
          <mxGeometry x="100" y="836" width="120" height="60" as="geometry" />
        </mxCell>
        <mxCell id="kPRLFECJpAxbs8ugJRar-35" value="" style="edgeStyle=orthogonalEdgeStyle;rounded=0;orthogonalLoop=1;jettySize=auto;html=1;" edge="1" parent="1" source="kPRLFECJpAxbs8ugJRar-31" target="kPRLFECJpAxbs8ugJRar-34">
          <mxGeometry relative="1" as="geometry" />
        </mxCell>
        <mxCell id="kPRLFECJpAxbs8ugJRar-31" value="Mendapatkan&amp;nbsp;&lt;br&gt;Yolo Model&lt;br&gt;(best.pt)" style="shape=parallelogram;perimeter=parallelogramPerimeter;whiteSpace=wrap;html=1;fixedSize=1;rounded=0;" vertex="1" parent="1">
          <mxGeometry x="238" y="836" width="120" height="60" as="geometry" />
        </mxCell>
        <mxCell id="kPRLFECJpAxbs8ugJRar-38" style="edgeStyle=orthogonalEdgeStyle;rounded=0;orthogonalLoop=1;jettySize=auto;html=1;entryX=0;entryY=0.5;entryDx=0;entryDy=0;" edge="1" parent="1" source="kPRLFECJpAxbs8ugJRar-34" target="kPRLFECJpAxbs8ugJRar-37">
          <mxGeometry relative="1" as="geometry" />
        </mxCell>
        <mxCell id="kPRLFECJpAxbs8ugJRar-34" value="Deteksi Plat Nomor&lt;br&gt;Kendaraan" style="whiteSpace=wrap;html=1;rounded=0;" vertex="1" parent="1">
          <mxGeometry x="380" y="836" width="120" height="60" as="geometry" />
        </mxCell>
        <mxCell id="kPRLFECJpAxbs8ugJRar-40" value="" style="edgeStyle=orthogonalEdgeStyle;rounded=0;orthogonalLoop=1;jettySize=auto;html=1;" edge="1" parent="1" source="kPRLFECJpAxbs8ugJRar-37" target="kPRLFECJpAxbs8ugJRar-39">
          <mxGeometry relative="1" as="geometry" />
        </mxCell>
        <mxCell id="kPRLFECJpAxbs8ugJRar-37" value="Bounding Box" style="rounded=0;whiteSpace=wrap;html=1;" vertex="1" parent="1">
          <mxGeometry x="560" y="114" width="120" height="60" as="geometry" />
        </mxCell>
        <mxCell id="kPRLFECJpAxbs8ugJRar-42" value="" style="edgeStyle=orthogonalEdgeStyle;rounded=0;orthogonalLoop=1;jettySize=auto;html=1;" edge="1" parent="1" source="kPRLFECJpAxbs8ugJRar-39" target="kPRLFECJpAxbs8ugJRar-41">
          <mxGeometry relative="1" as="geometry" />
        </mxCell>
        <mxCell id="kPRLFECJpAxbs8ugJRar-39" value="Cropping Citra" style="rounded=0;whiteSpace=wrap;html=1;" vertex="1" parent="1">
          <mxGeometry x="560" y="214" width="120" height="60" as="geometry" />
        </mxCell>
        <mxCell id="kPRLFECJpAxbs8ugJRar-44" value="" style="edgeStyle=orthogonalEdgeStyle;rounded=0;orthogonalLoop=1;jettySize=auto;html=1;" edge="1" parent="1" source="kPRLFECJpAxbs8ugJRar-41" target="kPRLFECJpAxbs8ugJRar-43">
          <mxGeometry relative="1" as="geometry" />
        </mxCell>
        <mxCell id="kPRLFECJpAxbs8ugJRar-41" value="Konversi Menjadi&lt;br&gt;Black &amp;amp; White&amp;nbsp;" style="rounded=0;whiteSpace=wrap;html=1;" vertex="1" parent="1">
          <mxGeometry x="560" y="310" width="120" height="60" as="geometry" />
        </mxCell>
        <mxCell id="kPRLFECJpAxbs8ugJRar-46" value="" style="edgeStyle=orthogonalEdgeStyle;rounded=0;orthogonalLoop=1;jettySize=auto;html=1;" edge="1" parent="1" source="kPRLFECJpAxbs8ugJRar-43" target="kPRLFECJpAxbs8ugJRar-45">
          <mxGeometry relative="1" as="geometry" />
        </mxCell>
        <mxCell id="kPRLFECJpAxbs8ugJRar-43" value="Pengenalan Karakter&lt;br&gt;Nomor Kendaraan menggunakan EasyOCR" style="rounded=0;whiteSpace=wrap;html=1;" vertex="1" parent="1">
          <mxGeometry x="560" y="404" width="120" height="60" as="geometry" />
        </mxCell>
        <mxCell id="kPRLFECJpAxbs8ugJRar-49" value="" style="edgeStyle=orthogonalEdgeStyle;rounded=0;orthogonalLoop=1;jettySize=auto;html=1;" edge="1" parent="1" source="kPRLFECJpAxbs8ugJRar-45" target="kPRLFECJpAxbs8ugJRar-48">
          <mxGeometry relative="1" as="geometry" />
        </mxCell>
        <mxCell id="kPRLFECJpAxbs8ugJRar-45" value="Output Berupa Cropping Citra &amp;amp; Hasil Pengenalan" style="rounded=0;whiteSpace=wrap;html=1;" vertex="1" parent="1">
          <mxGeometry x="560" y="500" width="120" height="60" as="geometry" />
        </mxCell>
        <mxCell id="kPRLFECJpAxbs8ugJRar-48" value="Selesai" style="rounded=1;whiteSpace=wrap;html=1;arcSize=50;" vertex="1" parent="1">
          <mxGeometry x="560" y="600" width="120" height="60" as="geometry" />
        </mxCell>
        <mxCell id="kPRLFECJpAxbs8ugJRar-52" value="" style="edgeStyle=orthogonalEdgeStyle;rounded=0;orthogonalLoop=1;jettySize=auto;html=1;" edge="1" parent="1" source="kPRLFECJpAxbs8ugJRar-50" target="kPRLFECJpAxbs8ugJRar-51">
          <mxGeometry relative="1" as="geometry" />
        </mxCell>
        <mxCell id="kPRLFECJpAxbs8ugJRar-50" value="Anotasi Citra" style="rounded=0;whiteSpace=wrap;html=1;" vertex="1" parent="1">
          <mxGeometry x="194" y="502" width="120" height="60" as="geometry" />
        </mxCell>
        <mxCell id="kPRLFECJpAxbs8ugJRar-54" value="" style="edgeStyle=orthogonalEdgeStyle;rounded=0;orthogonalLoop=1;jettySize=auto;html=1;" edge="1" parent="1" source="kPRLFECJpAxbs8ugJRar-51" target="kPRLFECJpAxbs8ugJRar-16">
          <mxGeometry relative="1" as="geometry" />
        </mxCell>
        <mxCell id="kPRLFECJpAxbs8ugJRar-51" value="Splitting Data" style="rounded=0;whiteSpace=wrap;html=1;" vertex="1" parent="1">
          <mxGeometry x="194" y="600" width="120" height="60" as="geometry" />
        </mxCell>
        <mxCell id="kPRLFECJpAxbs8ugJRar-56" style="edgeStyle=orthogonalEdgeStyle;rounded=0;orthogonalLoop=1;jettySize=auto;html=1;exitX=0.5;exitY=1;exitDx=0;exitDy=0;entryX=0.5;entryY=0;entryDx=0;entryDy=0;entryPerimeter=0;" edge="1" parent="1" source="kPRLFECJpAxbs8ugJRar-51" target="kPRLFECJpAxbs8ugJRar-15">
          <mxGeometry relative="1" as="geometry" />
        </mxCell>
        <mxCell id="kPRLFECJpAxbs8ugJRar-57" style="edgeStyle=orthogonalEdgeStyle;rounded=0;orthogonalLoop=1;jettySize=auto;html=1;exitX=0.5;exitY=1;exitDx=0;exitDy=0;entryX=0.5;entryY=0;entryDx=0;entryDy=0;entryPerimeter=0;" edge="1" parent="1" source="kPRLFECJpAxbs8ugJRar-51" target="kPRLFECJpAxbs8ugJRar-17">
          <mxGeometry relative="1" as="geometry" />
        </mxCell>
      </root>
    </mxGraphModel>
  </diagram>
</mxfile>
